ModelForces
version=1
nRows=4
nColumns=94
inDegrees=yes

This file contains the forces exerted on a model during a simulation.

A force is a generalized force, meaning that it can be either a force (N) or a torque (Nm).

Units are S.I. units (second, meters, Newtons, ...)
Angles are in degrees.

endheader 
time	addbrev_l	addlong_l	addmagDist_l	addmagIsch_l	addmagMid_l	addmagProx_l	bflh_l	bfsh_l	edl_l	ehl_l	fdl_l	fhl_l	gaslat_l	gasmed_l	glmax1_l	glmax2_l	glmax3_l	glmed1_l	glmed2_l	glmed3_l	glmin1_l	glmin2_l	glmin3_l	grac_l	iliacus_l	perbrev_l	perlong_l	piri_l	psoas_l	recfem_l	sart_l	semimem_l	semiten_l	soleus_l	tfl_l	tibant_l	tibpost_l	vasint_l	vaslat_l	vasmed_l	addbrev_r	addlong_r	addmagDist_r	addmagIsch_r	addmagMid_r	addmagProx_r	bflh_r	bfsh_r	edl_r	ehl_r	fdl_r	fhl_r	gaslat_r	gasmed_r	glmax1_r	glmax2_r	glmax3_r	glmed1_r	glmed2_r	glmed3_r	glmin1_r	glmin2_r	glmin3_r	grac_r	iliacus_r	perbrev_r	perlong_r	piri_r	psoas_r	recfem_r	sart_r	semimem_r	semiten_r	soleus_r	tfl_r	tibant_r	tibpost_r	vasint_r	vaslat_r	vasmed_r	lumbar_extension	lumbar_bending	lumbar_rotation	arm_flex_l	arm_add_l	arm_rot_l	arm_flex_r	arm_add_r	arm_rot_r	elbow_flex_l	elbow_flex_r	pro_sup_l	pro_sup_r	
          3.33000000	         38.81235226	        416.07186798	          7.23487874	          7.23046407	          8.91140928	        167.41976251	        185.76298689	        164.60718851	         82.67393681	         17.43609756	          4.37047321	         12.82865691	        384.13359640	       1152.65577607	         45.91176250	         73.92305996	         11.14672372	         73.68747948	         56.32348722	        103.39431693	         11.58689986	         25.95709647	         25.26732881	         51.50444516	        202.20466398	        137.95489045	        365.14292670	        501.40135313	        429.55337120	        530.12134091	         88.62518587	        160.70459883	          6.59828091	        424.89311168	         42.76136087	        191.27703826	         23.12778526	        109.29971169	        807.92303601	        194.32788725	         36.31065914	         68.56230059	          0.22208841	          0.05268103	         16.98375479	         66.24009736	         18.34534807	        155.87571987	        172.37501071	         15.38733317	          7.44333376	         25.22824557	         13.33778770	         12.26879152	         13.67871470	         66.11569836	         37.02515085	         11.51029749	          7.99542754	         11.53952479	          5.70122600	         19.80391231	         10.12630724	         21.44908796	        291.66293029	         42.94897219	         72.98630821	          4.06145887	        431.17963487	        246.31354831	        122.08980429	          1.17291209	          9.43292806	         32.63294503	         41.26009774	        365.32898054	        139.53203236	         30.24267247	         95.63204009	         50.85910120	        -81.40576578	         93.15208572	        -47.78826362	        -39.38991718	         89.32916774	         56.46224933	         53.33943068	        112.80501472	        -13.74206178	        -60.90412258	        -81.52354434	         24.75456254	          4.80418205	
          3.34000000	         32.40488270	        363.02474909	          7.55693187	          7.92352446	          7.93908827	        135.34496508	        312.08599654	         32.88232794	          0.03500173	         13.27800950	          3.96250032	         12.00431289	        373.93367683	       1127.37024402	         27.43367692	         25.09441033	         11.60311579	         58.70408070	         45.52693292	         84.89484064	          9.11737681	         20.07615789	          9.38715141	         59.93415354	        159.86280680	          9.53044627	        421.60072560	        610.94686769	        652.58186128	        468.73231921	         69.93244145	        134.24187387	          6.46625342	        294.00587113	         30.23352740	         76.76974274	         22.26681132	        103.29633469	        773.36758758	        181.23002618	         28.73542809	         55.23792504	          0.36930801	          0.04146271	         13.63193421	         52.55767655	         11.62399968	        300.94705125	        121.22471268	          9.62341947	         17.44780799	         22.63825781	         17.34800731	         22.96909352	         11.72688692	         57.67710851	         31.38996585	         12.44992471	          8.18014522	         10.08268785	          5.71302867	         17.18114246	         14.82864317	         28.60120687	        174.73191287	         20.94229047	         50.36609641	          4.01353381	        271.10601114	        392.95998796	        114.53986145	          0.00971651	        133.12852892	         52.13195595	         36.39657396	        440.08681801	        137.57206897	         28.95564034	         90.15716886	         47.66252153	       -112.00270957	         71.26286533	        -38.41244435	          8.05273899	        105.66466298	         72.50621300	          2.26026939	         88.94748129	         27.97419477	        -82.57235700	        -40.67665263	          3.56761345	          3.00902396	
          3.35000000	         26.26728361	        269.04120363	          7.76089130	          8.23386696	          6.82809111	        177.60396967	        508.21818844	        282.91465599	         95.44104051	         10.71318053	          3.34471827	         10.10459648	        372.04854290	       1129.11307370	        236.91948227	        623.44915472	         11.96495604	         48.24942196	         37.68375965	         70.79292305	          7.49648434	         16.26243296	         60.13740992	        108.41293369	        126.65787470	        134.88097853	        492.71173685	        706.13526931	        842.59869782	        446.25039026	        175.58298942	        111.08048550	          6.32169956	        339.83088065	         21.17600804	        147.57667134	         19.27752941	         91.83258662	        687.49189161	        160.36972072	         29.20066825	         27.60836196	          0.49394496	          0.02963319	         11.62587625	         40.39290233	          4.97179862	        403.14674969	        149.41123786	          3.80172924	          9.71864059	         32.89711491	         21.28981582	         30.61920806	          9.78369228	         48.79751045	         26.34316227	         13.00765637	          8.22053692	          8.56277544	         16.54224578	         14.75348383	         19.14335973	         12.58015122	        352.82177045	         27.72253382	         46.70031479	          3.69313547	        419.19181563	         56.80212169	        184.66426203	          0.00650403	         37.87258577	         75.66590471	         31.34977394	        311.25526032	         91.46413686	         25.91481293	         80.03503027	         42.17328329	        -72.18289343	         22.75886053	        -81.96752020	         43.53085793	        116.59217944	         27.20779580	        -36.01356250	         29.62650601	         58.41864915	        -98.13666640	          5.49240081	         -4.00253456	          0.79554372	
          3.36000000	         22.66404613	        232.90541440	          7.92814998	          8.51902981	          6.97658118	        133.37567841	        710.95243214	        230.00377579	        100.88482170	          9.11130482	          2.64115765	          7.84482306	        373.11100652	       1132.15791787	        225.25443802	        597.13793179	         11.68779501	         45.72285616	         32.09338287	         56.70651404	          7.14684845	         13.76749243	         43.38939514	        112.04954742	        111.43393620	        191.42656176	        574.82400651	        766.16603887	        802.21182433	        442.02430858	        174.85598744	         90.73772074	          6.07183772	        281.25331807	         25.04437409	        125.08356625	         15.94334830	         79.73058687	        594.47171287	        138.99969985	         71.78845811	        116.75008898	          0.62046527	          0.15611934	         19.04267337	         63.84002632	          0.03176703	        481.80810872	        207.66601106	          2.29398676	          2.89182541	         15.88993745	         26.82479979	         40.06850418	          8.12413144	         40.90286617	         21.83259925	         13.38526236	          8.25959872	          7.94510523	         14.42296934	         12.65017588	         21.38474529	         83.25634321	        474.53801099	         32.19957607	         70.48122390	          3.15701300	        586.82860784	        240.00563507	        250.25218908	          0.00465041	        169.39251834	        106.79371799	         26.31784042	        122.02123564	         27.29290741	         23.29134733	         71.34959355	         37.47455647	        -98.39306265	         17.69167999	        -76.18785332	          5.20237020	        125.23980187	        -18.86456006	        -64.57593516	         15.38460486	         79.83774635	        -35.05283431	        -32.98827257	         -4.13729639	          0.63404395	
